<svg xmlns="http://www.w3.org/2000/svg" width="36" height="36" viewBox="0 0 36 36" fill="none">
  <path d="M30.7535 8H5.24702C4.00612 8 3.00024 9.02352 3.00024 10.2862V25.7138C3.00024 26.9764 4.00612 27.9999 5.24702 27.9999H30.7535C31.9943 27.9999 33.0002 26.9764 33.0002 25.7138V10.2862C33.0002 9.02352 31.9944 8 30.7535 8Z" fill="#41479B"/>
  <path d="M32.9691 9.9083C32.7921 8.82564 31.8677 8 30.7535 8H30.1689L20.5865 14.3883V8.00006H15.414V14.3883L5.83161 8.00006H5.24702C4.13274 8.00006 3.20843 8.82564 3.03136 9.90836L11.2215 15.3685H3.00024V20.6316H11.2215L3.03136 26.0916C3.20843 27.1743 4.13274 27.9999 5.24702 27.9999H5.83161L15.414 21.6117V27.9999H20.5865V21.6117L30.1689 27.9999H30.7535C31.8677 27.9999 32.7921 27.1744 32.9691 26.0916L24.779 20.6315H33.0002V15.3684H24.779L32.9691 9.9083Z" fill="#F5F5F5"/>
  <path d="M19.552 8H16.4485V16.421H3.00024V19.5789H16.4485V27.9999H19.552V19.5789H33.0002V16.421H19.552V8Z" fill="#FF4B55"/>
  <path d="M4.45302 27.852L15.3856 20.631H13.4855L3.54077 27.1996C3.78623 27.4915 4.09995 27.7159 4.45302 27.852ZM23.2965 20.631H21.3964L31.9852 27.6249C32.2822 27.4263 32.5288 27.1592 32.7052 26.8453L23.2965 20.631ZM3.23755 9.26339L12.4795 15.3678H14.3796L3.90704 8.45057C3.62458 8.66462 3.3953 8.94299 3.23755 9.26339ZM22.4866 15.3678L32.4496 8.78714C32.2014 8.49596 31.885 8.27325 31.5297 8.13965L20.5865 15.3678H22.4866Z" fill="#FF4B55"/>
</svg>